<?xml version="1.0" encoding="UTF-8"?>
<!DOCTYPE svg PUBLIC "-//W3C//DTD SVG 1.1//EN" "http://www.w3.org/Graphics/SVG/1.1/DTD/svg11.dtd">
<!-- Creator: CorelDRAW X8 -->
<svg xmlns="http://www.w3.org/2000/svg" xml:space="preserve" width="100%" height="100%" version="1.1" style="shape-rendering:geometricPrecision; text-rendering:geometricPrecision; image-rendering:optimizeQuality; fill-rule:evenodd; clip-rule:evenodd"
viewBox="0 0 354 354"
 xmlns:xlink="http://www.w3.org/1999/xlink">
 <defs>
 </defs>
 <g id="Слой_x0020_1">
  <metadata id="CorelCorpID_0Corel-Layer"/>
  <g id="_1785965688368">
   <g>
    <path fill="#ffffff" d="M85 179c-1,-3 -3,-6 -6,-9 -2,-2 -5,-4 -8,-5 -2,-1 -6,-1 -11,-1l-20 0 0 56 21 0c4,0 7,0 10,-1 3,-1 6,-3 8,-5 2,-2 4,-5 6,-9 1,-4 2,-8 2,-12 0,-6 -1,-10 -2,-14zm-11 23c-1,3 -2,5 -3,6 -1,1 -3,2 -5,2 -1,1 -3,1 -7,1l-8 0 0 -37 5 0c5,0 8,0 9,0 2,1 4,1 6,3 1,1 2,3 3,5 1,2 1,6 1,10 0,4 0,8 -1,10z"/>
    <path fill="#ffffff" d="M197 200c-1,4 -2,7 -4,9 -2,1 -5,2 -8,2 -4,0 -7,-1 -10,-4 -3,-3 -4,-8 -4,-15 0,-7 1,-12 4,-15 3,-3 6,-4 10,-4 3,0 6,1 8,2 2,2 3,4 4,7l11 -3c-1,-4 -3,-7 -6,-10 -4,-4 -9,-6 -16,-6 -8,0 -14,3 -19,8 -5,5 -7,12 -7,22 0,8 2,15 7,20 5,6 11,8 18,8 6,0 11,-1 15,-4 4,-3 7,-8 8,-14l-11 -3z"/>
    <path fill="#ffffff" d="M143 171c-5,-5 -11,-8 -19,-8 -5,0 -9,1 -12,2 -3,1 -6,3 -8,5 -2,3 -4,5 -5,8 -2,4 -3,9 -3,14 0,9 3,16 8,21 5,6 11,8 20,8 8,0 15,-2 19,-8 5,-5 8,-12 8,-21 0,-9 -3,-16 -8,-21zm-8 36c-3,3 -7,4 -11,4 -5,0 -9,-1 -11,-5 -3,-3 -5,-8 -5,-14 0,-6 2,-11 4,-14 3,-4 7,-5 12,-5 4,0 8,1 11,5 3,3 4,7 4,14 0,6 -1,11 -4,15z"/>
   </g>
   <path fill="#ffffff" d="M335 99l-86 -90c-2,-1 -3,-2 -5,-2l-129 0c-14,0 -26,12 -26,27l0 91 -52 0c-11,0 -20,9 -20,20l0 97c0,11 9,20 20,20l52 0 0 59c0,14 12,26 26,26l196 0c14,0 26,-12 26,-26l0 -217c0,-2 -1,-3 -2,-5zm-89 -74l71 74 -71 0 0 -74zm-209 224c-4,0 -7,-3 -7,-7l0 -97c0,-4 3,-7 7,-7l176 0c4,0 6,3 6,7l0 97c0,4 -2,7 -6,7l-176 0zm287 72c0,7 -6,13 -13,13l-196 0c-7,0 -13,-6 -13,-13l0 -59 111 0c11,0 20,-9 20,-20l0 -97c0,-11 -9,-20 -20,-20l-111 0 0 -91c0,-8 6,-14 13,-14l118 0 0 85c0,4 2,7 6,7l85 0 0 209z"/>
  </g>
 </g>
</svg>
