<svg width="100%" height="100%" viewBox="0 0 57 60" fill="none" xmlns="http://www.w3.org/2000/svg">
<path d="M55.7377 16.099L40.5819 0.350663C40.3662 0.126648 40.0685 0 39.7576 0H17.169C14.641 0 12.5843 2.05587 12.5843 4.58278V20.5925H3.43006C1.53871 20.5925 0 22.1308 0 24.0217V41.1881C0 43.0789 1.53871 44.6171 3.43006 44.6171H12.5843V54.9147C12.5843 57.4372 14.641 59.4895 17.169 59.4895H51.4728C54.0008 59.4895 56.0574 57.4384 56.0574 54.9173V16.8923C56.0574 16.5965 55.9428 16.3122 55.7377 16.099ZM40.0411 3.08846L52.4826 16.0164H40.0411V3.08846ZM3.43006 42.3291C2.8003 42.3291 2.28814 41.8173 2.28814 41.1881V24.0217C2.28814 23.3925 2.80042 22.8806 3.43006 22.8806H34.3229C34.9525 22.8806 35.4649 23.3925 35.4649 24.0217V41.1881C35.4649 41.8173 34.9525 42.3291 34.3229 42.3291H3.43006ZM53.7693 54.9173C53.7693 56.1768 52.739 57.2015 51.4727 57.2015H17.169C15.9026 57.2015 14.8724 56.1757 14.8724 54.9148V44.6171H34.3228C36.2142 44.6171 37.7529 43.0789 37.7529 41.1881V24.0217C37.7529 22.1308 36.2142 20.5925 34.3228 20.5925H14.8724V4.58278C14.8724 3.31735 15.9026 2.28802 17.169 2.28802H37.7529V17.1604C37.7529 17.7922 38.2652 18.3044 38.8969 18.3044H53.7693V54.9173Z" fill="white"/>
</svg>
