<svg width="33" height="33" viewBox="0 0 33 33" fill="none" xmlns="http://www.w3.org/2000/svg">
<path d="M29.3 5.59998H15.6486L13.206 3.01858C12.1643 1.88458 10.9738 1.33331 9.56667 1.33331H3.7C1.6598 1.33331 0 2.99311 0 5.03331V27.9666C0 30.0068 1.6598 31.6666 3.7 31.6666H29.3C31.3402 31.6666 33 30.0068 33 27.9666V9.29998C33 7.25978 31.3402 5.59998 29.3 5.59998ZM32 27.9666C32 29.4554 30.7888 30.6666 29.3 30.6666H3.7C2.2112 30.6666 1 29.4554 1 27.9666V12.5C1 11.0112 2.2112 9.79998 3.7 9.79998H29.3C30.7888 9.79998 32 11.0112 32 12.5V27.9666ZM29.3 8.79998H3.7C2.63573 8.79998 1.67567 9.25225 1 9.97398V5.03331C1 3.54451 2.2112 2.33331 3.7 2.33331H9.56667C10.6947 2.33331 11.6179 2.76685 12.4719 3.69765C12.4737 3.69951 12.4754 3.70145 12.4772 3.70325L15.0702 6.44358C15.1646 6.54338 15.2959 6.59998 15.4333 6.59998H29.3C30.7888 6.59998 32 7.81118 32 9.29998V9.97398C31.3243 9.25225 30.3643 8.79998 29.3 8.79998Z" fill="#F6AE2D"/>
<path d="M28.7668 12H21.8335C21.5574 12 21.3335 12.2238 21.3335 12.5C21.3335 12.7762 21.5574 13 21.8335 13H28.7668C29.043 13 29.2668 12.7762 29.2668 12.5C29.2668 12.2238 29.043 12 28.7668 12Z" fill="#F6AE2D"/>
<path d="M28.7668 14.6666H21.8335C21.5574 14.6666 21.3335 14.8904 21.3335 15.1666C21.3335 15.4428 21.5574 15.6666 21.8335 15.6666H28.7668C29.043 15.6666 29.2668 15.4428 29.2668 15.1666C29.2668 14.8904 29.043 14.6666 28.7668 14.6666Z" fill="#F6AE2D"/>
</svg>
