<svg width="40" height="40" viewBox="0 0 40 40" fill="none" xmlns="http://www.w3.org/2000/svg">
<path d="M13.3349 20C13.3349 16.3183 16.3189 13.3328 20.0008 13.3328C23.6827 13.3328 26.6683 16.3183 26.6683 20C26.6683 23.6817 23.6827 26.6672 20.0008 26.6672C16.3189 26.6672 13.3349 23.6817 13.3349 20ZM9.7306 20C9.7306 25.6721 14.3285 30.2698 20.0008 30.2698C25.6731 30.2698 30.271 25.6721 30.271 20C30.271 14.3279 25.6731 9.73021 20.0008 9.73021C14.3285 9.73021 9.7306 14.3279 9.7306 20ZM28.2774 9.3231C28.2774 10.6478 29.3518 11.7237 30.6781 11.7237C32.0029 11.7237 33.0789 10.6478 33.0789 9.3231C33.0789 7.99838 32.0045 6.92407 30.6781 6.92407C29.3518 6.92407 28.2774 7.99838 28.2774 9.3231ZM11.9197 36.2795C9.96971 36.1906 8.90989 35.8659 8.2055 35.5913C7.2717 35.2278 6.60608 34.7948 5.90492 34.0953C5.20538 33.3958 4.77079 32.7302 4.4089 31.7964C4.13425 31.0921 3.80952 30.0323 3.72067 28.0824C3.62373 25.9741 3.60435 25.3409 3.60435 20C3.60435 14.6591 3.62535 14.0275 3.72067 11.9176C3.80952 9.96769 4.13587 8.90953 4.4089 8.20355C4.77241 7.26979 5.20538 6.6042 5.90492 5.90307C6.60447 5.20355 7.27008 4.76898 8.2055 4.40711C8.90989 4.13247 9.96971 3.80775 11.9197 3.7189C14.028 3.62197 14.6613 3.60258 20.0008 3.60258C25.3419 3.60258 25.9736 3.62359 28.0835 3.7189C30.0335 3.80775 31.0917 4.13409 31.7977 4.40711C32.7315 4.76898 33.3972 5.20355 34.0983 5.90307C34.7979 6.60258 35.2308 7.26979 35.5943 8.20355C35.869 8.90792 36.1937 9.96769 36.2826 11.9176C36.3795 14.0275 36.3989 14.6591 36.3989 20C36.3989 25.3393 36.3795 25.9725 36.2826 28.0824C36.1937 30.0323 35.8674 31.0921 35.5943 31.7964C35.2308 32.7302 34.7979 33.3958 34.0983 34.0953C33.3988 34.7948 32.7315 35.2278 31.7977 35.5913C31.0933 35.8659 30.0335 36.1906 28.0835 36.2795C25.9752 36.3764 25.3419 36.3958 20.0008 36.3958C14.6613 36.3958 14.028 36.3764 11.9197 36.2795ZM11.7549 0.121163C9.62559 0.218094 8.17157 0.555735 6.90012 1.05008C5.58504 1.56058 4.47029 2.24556 3.35716 3.35703C2.24565 4.4685 1.56064 5.5832 1.05012 6.89984C0.555758 8.17124 0.218103 9.6252 0.121168 11.7544C0.022618 13.8869 0 14.5687 0 20C0 25.4313 0.022618 26.1131 0.121168 28.2456C0.218103 30.3748 0.555758 31.8288 1.05012 33.1002C1.56064 34.4152 2.24403 35.5315 3.35716 36.643C4.46868 37.7544 5.58342 38.4378 6.90012 38.9499C8.17319 39.4443 9.62559 39.7819 11.7549 39.8788C13.8891 39.9758 14.5692 40 20.0008 40C25.434 40 26.1141 39.9774 28.2467 39.8788C30.376 39.7819 31.83 39.4443 33.1015 38.9499C34.4166 38.4378 35.5313 37.7544 36.6445 36.643C37.756 35.5315 38.4394 34.4152 38.9515 33.1002C39.4459 31.8288 39.7851 30.3748 39.8805 28.2456C39.9774 26.1115 40 25.4313 40 20C40 14.5687 39.9774 13.8869 39.8805 11.7544C39.7835 9.6252 39.4459 8.17124 38.9515 6.89984C38.4394 5.58481 37.756 4.47011 36.6445 3.35703C35.5329 2.24556 34.4166 1.56058 33.1031 1.05008C31.83 0.555735 30.376 0.216478 28.2483 0.121163C26.1158 0.0242326 25.434 0 20.0024 0C14.5692 0 13.8891 0.0226171 11.7549 0.121163Z" fill="white"/>
</svg>
