<?xml version="1.0" encoding="UTF-8" standalone="no"?>
<svg
   xmlns:dc="http://purl.org/dc/elements/1.1/"
   xmlns:cc="http://creativecommons.org/ns#"
   xmlns:rdf="http://www.w3.org/1999/02/22-rdf-syntax-ns#"
   xmlns:svg="http://www.w3.org/2000/svg"
   xmlns="http://www.w3.org/2000/svg"
   xmlns:sodipodi="http://sodipodi.sourceforge.net/DTD/sodipodi-0.dtd"
   xmlns:inkscape="http://www.inkscape.org/namespaces/inkscape"
   version="1.1"
   id="svg2"
   xml:space="preserve"
   width="245.33333"
   height="100"
   viewBox="0 0 245.33333 100"
   sodipodi:docname="logo_AM_color.ai"><metadata
     id="metadata8"><rdf:RDF><cc:Work
         rdf:about=""><dc:format>image/svg+xml</dc:format><dc:type
           rdf:resource="http://purl.org/dc/dcmitype/StillImage" /></cc:Work></rdf:RDF></metadata><defs
     id="defs6"><clipPath
       clipPathUnits="userSpaceOnUse"
       id="clipPath26"><path
         d="M 0,75 H 184 V 0 H 0 Z"
         id="path24" /></clipPath></defs><sodipodi:namedview
     pagecolor="#ffffff"
     bordercolor="#666666"
     borderopacity="1"
     objecttolerance="10"
     gridtolerance="10"
     guidetolerance="10"
     inkscape:pageopacity="0"
     inkscape:pageshadow="2"
     inkscape:window-width="640"
     inkscape:window-height="480"
     id="namedview4" /><g
     id="g10"
     inkscape:groupmode="layer"
     inkscape:label="logo_AM_color"
     transform="matrix(1.3333333,0,0,-1.3333333,0,100)"><g
       id="g12"
       transform="translate(168.0003,74.9997)"><path
         d="M 0,0 -40,-17 V -58 L 0,-75 Z"
         style="fill:#0f80ff;fill-opacity:1;fill-rule:nonzero;stroke:none"
         id="path14" /></g><g
       id="g16"
       transform="translate(171.9999,65.9997)"><path
         d="m 0,0 v -57 l 12,-3.999 v 65 z"
         style="fill:#ff0517;fill-opacity:1;fill-rule:nonzero;stroke:none"
         id="path18" /></g><g
       id="g20"><g
         id="g22"
         clip-path="url(#clipPath26)"><g
           id="g28"
           transform="translate(110.4561,52.2202)"><path
             d="M 0,0 -1.749,-4.906 H 2.622 L 0.874,0 C 0.68,0.55 0.534,1.125 0.437,1.724 0.34,1.125 0.194,0.55 0,0 M -4.056,-11.22 H -8.67 l 6.678,17 h 4.857 l 6.679,-17 H 4.93 l -0.972,2.671 h -7.043 z m -15.932,0 h -4.492 v 17 h 4.492 v -6.436 h 2.138 l 3.861,6.436 h 4.978 l -5.343,-8.281 5.586,-8.719 h -4.978 l -4.129,6.557 h -2.113 z m -7.698,0 h -4.493 v 6.946 c 0,1.149 0.033,2.08 0.097,2.793 l -6.654,-9.739 h -4.25 v 17 h 4.493 v -6.946 c 0,-1.166 -0.033,-2.105 -0.097,-2.817 l 6.654,9.763 h 4.25 z m -31.062,17 h 14.086 V 1.772 h -4.784 V -11.22 h -4.493 V 1.772 h -4.809 z m -11.365,-17 h -4.493 v 17 h 4.493 v -6.436 h 2.137 l 3.861,6.436 h 4.979 l -5.343,-8.281 5.586,-8.719 h -4.979 L -68,-4.663 h -2.113 z m -13.819,9.228 c 1.717,0 2.575,0.648 2.575,1.943 0,1.296 -0.858,1.943 -2.575,1.943 h -2.453 v -3.886 z m -6.945,7.772 h 6.727 c 4.938,0 7.407,-1.943 7.407,-5.829 0,-3.853 -2.469,-5.796 -7.407,-5.828 h -2.235 v -5.343 h -4.492 z M -101.786,0 l -1.749,-4.906 h 4.372 L -100.912,0 c -0.195,0.55 -0.34,1.125 -0.437,1.724 C -101.446,1.125 -101.59,0.55 -101.786,0 m -4.056,-11.22 h -4.614 l 6.679,17 h 4.857 l 6.678,-17 h -4.614 l -0.972,2.671 h -7.042 z"
             style="fill:#000000;fill-opacity:1;fill-rule:evenodd;stroke:none"
             id="path30" /></g><g
           id="g32"
           transform="translate(110.4561,28.2197)"><path
             d="M 0,0 -1.749,-4.905 H 2.622 L 0.874,0 C 0.68,0.551 0.534,1.125 0.437,1.725 0.34,1.125 0.194,0.551 0,0 M -4.056,-11.22 H -8.67 l 6.678,17 h 4.857 l 6.679,-17 H 4.93 l -0.972,2.672 h -7.043 z m -6.242,0 h -4.492 v 6.946 c 0,1.149 0.032,2.081 0.097,2.793 l -6.655,-9.739 h -4.25 v 17 h 4.494 v -6.945 c 0,-1.166 -0.033,-2.106 -0.098,-2.817 l 6.654,9.762 h 4.25 z M -38.08,1.773 c -0.292,-4.064 -0.98,-7.099 -2.065,-9.107 h 5.586 v 9.107 z m -8.743,-15.993 v 6.886 h 1.943 c 1.781,3.173 2.671,7.545 2.671,13.114 h 12.143 V -7.334 h 2.186 v -6.886 h -3.886 v 3 h -11.172 v -3 z m -13.649,20 h 12.24 V 1.895 h -7.747 v -2.599 h 7.019 v -3.861 h -7.019 v -2.769 h 7.893 v -3.886 h -12.386 z m -7.388,0 h 4.25 v -17 h -4.493 v 9.034 l -3.643,-5.585 h -2.574 l -3.643,5.61 v -9.059 h -4.493 v 17 h 4.25 l 5.173,-7.966 z"
             style="fill:#000000;fill-opacity:1;fill-rule:evenodd;stroke:none"
             id="path34" /></g></g></g></g></svg>
