<svg width="267" height="107" viewBox="0 0 267 107" fill="none" xmlns="http://www.w3.org/2000/svg">
<path d="M84.0586 102.544L244.302 88.0851L249.118 0L267 107L84.0586 102.544Z" fill="#F6AE2D"/>
<path d="M7.67059 26.0317C5.22496 26.1067 2.84674 25.2232 1.04276 23.5696C0.905914 23.4695 0.797901 23.335 0.729628 23.1798C0.661356 23.0245 0.635241 22.854 0.653923 22.6855C0.704415 22.3206 0.896484 21.9903 1.18857 21.766C1.30008 21.6637 1.43121 21.5851 1.574 21.5349C1.71678 21.4848 1.86826 21.4641 2.01926 21.4743C2.36697 21.506 2.69533 21.6486 2.95599 21.881C3.55315 22.4253 4.26189 22.8326 5.03271 23.0745C5.88359 23.3393 6.7707 23.4691 7.66175 23.4591C8.9956 23.4872 10.3111 23.1445 11.4617 22.4689C12.5463 21.8124 13.4297 20.8705 14.0156 19.7459C14.6439 18.5329 14.9598 17.1822 14.9347 15.8162C14.9565 14.4391 14.6537 13.0761 14.051 11.8378C13.5114 10.7276 12.6787 9.78597 11.6429 9.11488C10.5706 8.45541 9.33104 8.1193 8.07268 8.14681C7.05427 8.12562 6.04402 8.33255 5.11588 8.75245C4.18775 9.17235 3.36523 9.79459 2.70855 10.5736C2.47905 10.8414 2.16899 11.0275 1.82484 11.1041C1.67154 11.1346 1.5135 11.1323 1.36117 11.0973C1.20883 11.0622 1.06566 10.9952 0.941129 10.9007C0.785046 10.8022 0.650541 10.6731 0.545738 10.5212C0.440935 10.3692 0.36801 10.1976 0.331368 10.0166C0.301779 9.84954 0.311532 9.67784 0.359853 9.51517C0.408174 9.35249 0.493732 9.20333 0.609737 9.07952C1.49975 7.95261 2.63655 7.04522 3.93249 6.42728C5.24075 5.82867 6.6651 5.52678 8.10361 5.5432C9.83016 5.50835 11.5319 5.95829 13.0158 6.84197C14.4997 7.72565 15.7064 9.0077 16.4989 10.5427C17.3399 12.1649 17.7636 13.9713 17.7316 15.7985C17.7603 17.6191 17.3173 19.4161 16.4458 21.0146C15.6103 22.535 14.3779 23.8 12.8801 24.6747C11.2994 25.593 9.49819 26.0623 7.67059 26.0317ZM6.49083 16.771C6.15038 16.787 5.81624 16.6751 5.5541 16.4572C5.44374 16.3496 5.35602 16.2211 5.29613 16.0791C5.23623 15.9372 5.20537 15.7846 5.20537 15.6305C5.20537 15.4764 5.23623 15.3239 5.29613 15.1819C5.35602 15.04 5.44374 14.9114 5.5541 14.8039C5.81624 14.586 6.15038 14.4741 6.49083 14.4901H15.4207C15.7613 14.4732 16.0958 14.5852 16.3575 14.8039C16.4678 14.9114 16.5555 15.04 16.6154 15.1819C16.6753 15.3239 16.7062 15.4764 16.7062 15.6305C16.7062 15.7846 16.6753 15.9372 16.6154 16.0791C16.5555 16.2211 16.4678 16.3496 16.3575 16.4572C16.0958 16.6758 15.7613 16.7879 15.4207 16.771H6.49083Z" fill="black"/>
<path d="M24.6776 25.8504C24.4859 25.8591 24.2944 25.8292 24.1145 25.7623C23.9346 25.6955 23.77 25.5932 23.6304 25.4615C23.4979 25.33 23.3938 25.1727 23.3247 24.9993C23.2555 24.826 23.2227 24.6402 23.2283 24.4536V7.17871C23.2212 6.99014 23.2515 6.80202 23.3175 6.62524C23.3834 6.44845 23.4838 6.28651 23.6127 6.14876C23.7495 6.01191 23.9132 5.90506 24.0935 5.83504C24.2738 5.76502 24.4667 5.73336 24.6599 5.74209C24.8478 5.73421 25.0351 5.7664 25.2096 5.83651C25.384 5.90663 25.5416 6.01307 25.6718 6.14876C25.8007 6.28651 25.9011 6.44845 25.967 6.62524C26.033 6.80202 26.0633 6.99014 26.0562 7.17871V24.4536C26.0664 24.6397 26.0373 24.8259 25.9707 25C25.9042 25.1741 25.8017 25.3322 25.6699 25.464C25.5382 25.5958 25.3801 25.6984 25.2061 25.765C25.0321 25.8315 24.846 25.8607 24.6599 25.8504H24.6776ZM37.5754 25.8504C37.1943 25.8622 36.824 25.7223 36.5458 25.4615C36.4116 25.3313 36.3063 25.1743 36.237 25.0006C36.1677 24.8269 36.1359 24.6405 36.1438 24.4536V13.8447C36.1438 12.103 35.7019 10.7504 34.7828 9.70718C34.3493 9.21131 33.8116 8.81745 33.2081 8.55381C32.6047 8.29016 31.9504 8.16325 31.2922 8.18214C30.5988 8.1597 29.9083 8.28039 29.2637 8.53668C28.619 8.79298 28.034 9.17939 27.5452 9.67181C27.0523 10.186 26.668 10.7943 26.4152 11.4604C26.1624 12.1264 26.0463 12.8366 26.0739 13.5485H24.0546C24.0742 12.0964 24.4328 10.6689 25.1018 9.38007C25.7138 8.19248 26.6455 7.19973 27.7916 6.51392C28.9378 5.8281 30.2529 5.47655 31.5882 5.49896C32.9381 5.47403 34.2676 5.83105 35.4235 6.52892C36.5592 7.23815 37.466 8.26044 38.0349 9.4729C38.688 10.8529 39.0088 12.3669 38.9716 13.8933V24.5022C38.9796 24.6876 38.9496 24.8726 38.8835 25.0459C38.8173 25.2192 38.7165 25.3771 38.5872 25.5101C38.4495 25.631 38.2891 25.7234 38.1154 25.7819C37.9417 25.8403 37.7582 25.8636 37.5754 25.8504ZM50.3892 25.8504C50.0081 25.8622 49.6378 25.7223 49.3597 25.4615C49.2254 25.3313 49.1201 25.1743 49.0508 25.0006C48.9815 24.8269 48.9498 24.6405 48.9576 24.4536V13.8447C48.9576 12.103 48.5157 10.7504 47.5966 9.70718C47.1631 9.21131 46.6254 8.81745 46.0219 8.55381C45.4185 8.29016 44.7642 8.16325 44.106 8.18214C43.412 8.15854 42.7209 8.28223 42.0781 8.54509C41.4353 8.80794 40.8555 9.20399 40.3767 9.70718C39.8815 10.2553 39.5013 10.8973 39.2584 11.595C39.0155 12.2928 38.915 13.0322 38.9628 13.7695H36.4354C36.4354 12.2719 36.801 10.797 37.5003 9.4729C38.1516 8.25689 39.1335 7.25005 40.3325 6.5687C41.5771 5.87087 42.9843 5.51549 44.4109 5.53875C45.7621 5.51441 47.0928 5.87136 48.2506 6.5687C49.3772 7.26998 50.2813 8.27719 50.8575 9.4729C51.5106 10.8529 51.8315 12.3669 51.7943 13.8933V24.5022C51.8022 24.6876 51.7722 24.8726 51.7061 25.0459C51.64 25.2192 51.5392 25.3771 51.4099 25.5101C51.2722 25.631 51.1118 25.7234 50.9381 25.7819C50.7644 25.8403 50.5808 25.8636 50.398 25.8504H50.3892Z" fill="black"/>
<path d="M67.1885 26.0317C65.351 26.0611 63.5385 25.6036 61.9349 24.7056C60.4149 23.8459 59.1577 22.5882 58.2984 21.0676C57.4 19.4636 56.9426 17.6501 56.9728 15.8117C56.9371 13.9573 57.3946 12.1267 58.2984 10.5073C59.1577 8.98662 60.4149 7.72893 61.9349 6.86927C63.5471 6.00183 65.3491 5.54779 67.1797 5.54779C69.0103 5.54779 70.8123 6.00183 72.4245 6.86927C73.9356 7.73465 75.1857 8.99135 76.0433 10.5073C76.9452 12.1288 77.4125 13.9561 77.3998 15.8117C77.4341 17.6506 76.9765 19.4651 76.0742 21.0676C75.206 22.5814 73.951 23.837 72.4378 24.7056C70.8369 25.6064 69.025 26.0641 67.1885 26.0317ZM67.1885 23.459C68.5284 23.4791 69.8488 23.137 71.0106 22.4688C72.1261 21.8202 73.0429 20.8785 73.6617 19.7459C74.3117 18.5396 74.6404 17.1863 74.6161 15.8161C74.6393 14.4391 74.3108 13.0789 73.6617 11.8643C73.0483 10.7231 72.1306 9.77439 71.0106 9.12367C69.8413 8.47421 68.5259 8.13341 67.1885 8.13341C65.8511 8.13341 64.5358 8.47421 63.3665 9.12367C62.2511 9.78032 61.3348 10.7275 60.7153 11.8643C60.0544 13.075 59.7194 14.4368 59.7433 15.8161C59.7183 17.1885 60.0535 18.5435 60.7153 19.7459C61.3393 20.8747 62.2549 21.8151 63.3665 22.4688C64.528 23.1376 65.8486 23.4797 67.1885 23.459Z" fill="black"/>
<path d="M95.1094 25.8505C94.9176 25.8599 94.7259 25.8303 94.5459 25.7634C94.3659 25.6966 94.2013 25.5938 94.0622 25.4615C93.9328 25.3285 93.832 25.1706 93.7659 24.9973C93.6998 24.8239 93.6698 24.639 93.6778 24.4536V7.17873C93.6706 6.99016 93.7009 6.80204 93.7669 6.62526C93.8329 6.44847 93.9332 6.28652 94.0622 6.14878C94.1984 6.01125 94.3621 5.90396 94.5425 5.8339C94.7229 5.76383 94.9161 5.73255 95.1094 5.7421C95.2972 5.73423 95.4846 5.76642 95.659 5.83653C95.8335 5.90665 95.991 6.01309 96.1212 6.14878C96.2502 6.28652 96.3505 6.44847 96.4165 6.62526C96.4825 6.80204 96.5128 6.99016 96.5056 7.17873V24.4536C96.5159 24.6397 96.4867 24.8259 96.4202 25C96.3536 25.1741 96.2511 25.3322 96.1194 25.4641C95.9876 25.5959 95.8296 25.6984 95.6556 25.765C95.4815 25.8316 95.2954 25.8607 95.1094 25.8505ZM108.007 25.8505C107.818 25.8568 107.63 25.8257 107.454 25.7589C107.277 25.6921 107.115 25.591 106.978 25.4615C106.843 25.3313 106.738 25.1743 106.669 25.0006C106.6 24.8269 106.568 24.6405 106.576 24.4536V13.8447C106.576 12.103 106.134 10.7504 105.215 9.7072C104.781 9.21133 104.243 8.81747 103.64 8.55383C103.036 8.29018 102.382 8.16326 101.724 8.18216C101.031 8.15919 100.34 8.27963 99.6951 8.53595C99.0504 8.79228 98.4655 9.17897 97.977 9.67183C97.4841 10.186 97.0998 10.7943 96.847 11.4604C96.5942 12.1264 96.4781 12.8366 96.5056 13.5485H94.4864C94.506 12.0964 94.8646 10.6689 95.5336 9.38009C96.1452 8.19318 97.0762 7.20088 98.2215 6.51511C99.3669 5.82934 100.681 5.4774 102.016 5.49898C103.369 5.48082 104.7 5.84551 105.855 6.55104C106.987 7.25548 107.893 8.26943 108.467 9.47292C109.12 10.8529 109.441 12.3669 109.403 13.8933V24.5022C109.412 24.688 109.381 24.8734 109.314 25.0468C109.247 25.2203 109.145 25.378 109.015 25.5101C108.878 25.6314 108.718 25.724 108.545 25.7824C108.372 25.8409 108.189 25.864 108.007 25.8505ZM120.821 25.8505C120.632 25.8568 120.444 25.8257 120.267 25.7589C120.091 25.6921 119.929 25.591 119.791 25.4615C119.657 25.3313 119.552 25.1743 119.483 25.0006C119.413 24.8269 119.382 24.6405 119.389 24.4536V13.8447C119.389 12.103 118.947 10.7504 118.028 9.7072C117.595 9.21133 117.057 8.81747 116.454 8.55383C115.85 8.29018 115.196 8.16326 114.538 8.18216C113.844 8.15856 113.153 8.28225 112.51 8.54511C111.867 8.80796 111.287 9.20401 110.809 9.7072C110.313 10.2554 109.933 10.8973 109.69 11.5951C109.447 12.2928 109.347 13.0322 109.395 13.7695H106.858C106.861 12.2712 107.23 10.7963 107.932 9.47292C108.583 8.25823 109.563 7.25169 110.76 6.56872C112.005 5.87188 113.412 5.51657 114.838 5.53877C116.185 5.51029 117.512 5.86105 118.669 6.55104C119.804 7.25418 120.713 8.26825 121.289 9.47292C121.942 10.8529 122.263 12.3669 122.226 13.8933V24.5022C122.234 24.688 122.204 24.8734 122.137 25.0468C122.07 25.2203 121.968 25.378 121.837 25.5101C121.701 25.6314 121.541 25.724 121.368 25.7824C121.195 25.8409 121.012 25.864 120.83 25.8505H120.821Z" fill="black"/>
<path d="M137.62 26.0317C135.783 26.0611 133.97 25.6036 132.367 24.7056C130.845 23.846 129.587 22.5884 128.726 21.0676C127.829 19.463 127.372 17.6499 127.4 15.8118C127.367 13.9576 127.824 12.1275 128.726 10.5073C129.589 8.99137 130.847 7.7385 132.367 6.88258C133.979 6.01513 135.781 5.5611 137.611 5.5611C139.442 5.5611 141.244 6.01513 142.856 6.88258C144.367 7.74795 145.617 9.00466 146.475 10.5206C147.377 12.1421 147.844 13.9694 147.832 15.825C147.866 17.6639 147.408 19.4784 146.506 21.0809C145.638 22.5947 144.383 23.8503 142.87 24.7189C141.267 25.6151 139.456 26.0682 137.62 26.0317ZM137.62 23.459C138.959 23.4792 140.278 23.1371 141.438 22.4689C142.553 21.8203 143.47 20.8786 144.089 19.7459C144.739 18.5397 145.068 17.1863 145.043 15.8162C145.067 14.4391 144.738 13.0789 144.089 11.8644C143.475 10.7234 142.558 9.7748 141.438 9.12371C140.269 8.47424 138.955 8.13341 137.618 8.13341C136.281 8.13341 134.967 8.47424 133.798 9.12371C132.683 9.78036 131.767 10.7276 131.147 11.8644C130.486 13.0751 130.151 14.4369 130.175 15.8162C130.15 17.1886 130.485 18.5435 131.147 19.7459C131.771 20.8747 132.687 21.8152 133.798 22.4689C134.96 23.1376 136.28 23.4798 137.62 23.459Z" fill="black"/>
<path d="M160.84 5.74208C161.124 5.74079 161.404 5.8172 161.648 5.9631C161.916 6.14078 162.121 6.39722 162.236 6.69689L170.189 24.0469C170.273 24.1937 170.322 24.3578 170.332 24.5265C170.342 24.6951 170.313 24.8638 170.247 25.0194C170.101 25.3382 169.845 25.5939 169.527 25.7399C169.196 25.9045 168.815 25.9361 168.462 25.8283C168.131 25.6937 167.864 25.4375 167.715 25.1122L160.102 8.16888H161.759L154.018 25.0769C153.946 25.2467 153.838 25.3988 153.701 25.5225C153.565 25.6462 153.403 25.7385 153.227 25.793C152.867 25.9032 152.479 25.8699 152.144 25.7001C151.825 25.5584 151.57 25.3032 151.428 24.984C151.359 24.8314 151.323 24.6656 151.323 24.4978C151.323 24.33 151.359 24.1642 151.428 24.0116L159.51 6.69689C159.606 6.41975 159.785 6.17914 160.023 6.00816C160.261 5.83718 160.547 5.74422 160.84 5.74208Z" fill="black"/>
<path d="M183.472 26.2174C181.936 26.2516 180.413 25.9245 179.027 25.2626C177.805 24.6677 176.77 23.7507 176.031 22.6103C175.291 21.4404 174.915 20.0776 174.948 18.6939V7.13895C174.952 6.95015 174.993 6.76396 175.069 6.59102C175.145 6.41808 175.254 6.2618 175.39 6.1311C175.522 6.00319 175.677 5.90288 175.848 5.83608C176.019 5.76927 176.201 5.73732 176.384 5.74211C176.568 5.73736 176.752 5.77108 176.922 5.8411C177.092 5.91112 177.246 6.01591 177.374 6.14878C177.509 6.28352 177.614 6.44444 177.684 6.62159C177.754 6.79875 177.787 6.98837 177.781 7.17873V12.3948H183.768C185.215 12.3645 186.652 12.6543 187.974 13.2435C189.126 13.7538 190.108 14.5818 190.806 15.6305C191.486 16.6942 191.835 17.9356 191.81 19.1978C191.827 20.4817 191.462 21.7419 190.762 22.8181C190.038 23.9044 189.027 24.7688 187.842 25.3156C186.472 25.943 184.978 26.2513 183.472 26.2174ZM183.472 23.6049C184.879 23.6595 186.269 23.2748 187.448 22.5042C187.969 22.132 188.387 21.633 188.661 21.0544C188.936 20.4759 189.058 19.8369 189.017 19.1978C189.049 18.5924 188.94 17.9879 188.697 17.4323C188.455 16.8767 188.086 16.3853 187.621 15.9974C186.693 15.2371 185.407 14.857 183.763 14.857H177.776V18.716C177.764 19.6076 178.013 20.4833 178.492 21.2356C178.975 21.9989 179.662 22.6115 180.476 23.0037C181.414 23.4363 182.439 23.6466 183.472 23.6182V23.6049Z" fill="black"/>
<path d="M197.911 25.8505C197.728 25.8581 197.545 25.8275 197.374 25.7605C197.202 25.6935 197.047 25.5917 196.917 25.4615C196.667 25.1872 196.535 24.8248 196.551 24.4536V7.17872C196.531 6.79487 196.662 6.41855 196.917 6.13108C197.046 5.99903 197.201 5.89599 197.372 5.8289C197.544 5.7618 197.728 5.7322 197.911 5.74209C198.104 5.7259 198.298 5.75199 198.479 5.81852C198.66 5.88506 198.825 5.99044 198.961 6.12728C199.098 6.26413 199.202 6.42914 199.268 6.61075C199.334 6.79237 199.36 6.98622 199.343 7.17872V14.4547H203.824V17.0274H199.343V24.4536C199.351 24.6393 199.321 24.8248 199.254 24.9982C199.187 25.1716 199.085 25.3294 198.954 25.4615C198.816 25.5935 198.652 25.6961 198.473 25.7629C198.294 25.8298 198.103 25.8596 197.911 25.8505ZM212.166 25.4791C212.037 25.604 211.883 25.7013 211.716 25.7651C211.548 25.8289 211.369 25.858 211.189 25.8505C211.007 25.8575 210.826 25.8248 210.658 25.7545C210.49 25.6843 210.34 25.5782 210.217 25.4438L201.438 15.8162L209.833 6.18413C210.069 5.9273 210.393 5.76945 210.741 5.74239C211.088 5.71532 211.433 5.82104 211.706 6.03826C211.975 6.25892 212.146 6.57643 212.183 6.92233C212.193 7.0934 212.169 7.26471 212.112 7.42633C212.055 7.58795 211.967 7.73667 211.852 7.86388L204.964 15.6615L212.236 23.6756C212.466 23.9137 212.598 24.229 212.608 24.5597C212.606 24.7359 212.565 24.9096 212.489 25.0684C212.412 25.2273 212.302 25.3675 212.166 25.4791Z" fill="black"/>
<path d="M224.511 26.0317C222.674 26.0611 220.861 25.6036 219.257 24.7056C217.736 23.846 216.478 22.5884 215.617 21.0676C214.72 19.4629 214.263 17.6499 214.291 15.8117C214.257 13.9575 214.715 12.1275 215.617 10.5073C216.478 8.98645 217.736 7.72883 219.257 6.86927C220.87 6.00183 222.672 5.54779 224.502 5.54779C226.333 5.54779 228.135 6.00183 229.747 6.86927C231.258 7.73465 232.508 8.99135 233.366 10.5073C234.268 12.1288 234.735 13.9561 234.722 15.8117C234.757 17.6506 234.299 19.4651 233.397 21.0676C232.529 22.5814 231.274 23.837 229.76 24.7056C228.16 25.6064 226.348 26.0641 224.511 26.0317ZM224.511 23.459C225.851 23.4786 227.171 23.1366 228.333 22.4688C229.449 21.8202 230.366 20.8785 230.984 19.7459C231.634 18.5396 231.963 17.1863 231.939 15.8161C231.962 14.4391 231.633 13.0789 230.984 11.8643C230.37 10.724 229.452 9.77567 228.333 9.12367C227.164 8.47421 225.849 8.13341 224.511 8.13341C223.174 8.13341 221.858 8.47421 220.689 9.12367C219.574 9.78032 218.657 10.7275 218.038 11.8643C217.377 13.075 217.042 14.4368 217.066 15.8161C217.041 17.1885 217.376 18.5435 218.038 19.7459C218.662 20.8747 219.578 21.8151 220.689 22.4688C221.851 23.1376 223.171 23.4797 224.511 23.459Z" fill="black"/>
<path d="M30.4792 40.5615C30.7339 40.3109 31.0367 40.1143 31.3692 39.9836C31.7018 39.853 32.0574 39.7909 32.4145 39.8012C32.7671 39.7905 33.1181 39.8525 33.4457 39.9833C33.7734 40.1141 34.0706 40.3109 34.3189 40.5615C34.5722 40.8189 34.7703 41.1254 34.901 41.4621C35.0316 41.7989 35.0922 42.1588 35.0789 42.5197V77.9271C35.0928 78.2888 35.0325 78.6495 34.9018 78.9871C34.7711 79.3246 34.5728 79.6318 34.3189 79.8897C34.0692 80.1379 33.7715 80.3325 33.4441 80.4618C33.1167 80.591 32.7663 80.652 32.4145 80.6412C32.0558 80.646 31.6997 80.5788 31.3673 80.4436C31.0349 80.3085 30.733 80.1081 30.4793 79.8543C30.2256 79.6005 30.0253 79.2984 29.8902 78.9659C29.7551 78.6334 29.6879 78.2771 29.6927 77.9182V62.3408H5.43482V77.9271C5.443 78.2845 5.37958 78.6399 5.24829 78.9725C5.11701 79.305 4.92052 79.6079 4.67041 79.8632C4.41604 80.1205 4.11125 80.3225 3.77516 80.4564C3.43908 80.5902 3.07896 80.6532 2.71741 80.6412C2.35869 80.6466 2.00255 80.5798 1.67014 80.4448C1.33773 80.3098 1.03582 80.1094 0.782351 79.8554C0.528879 79.6014 0.32901 79.299 0.194614 78.9663C0.0602175 78.6335 -0.00596576 78.2771 -5.40516e-06 77.9182V42.5109C-0.0133708 42.148 0.0493055 41.7863 0.183996 41.449C0.318686 41.1118 0.52241 40.8065 0.782079 40.5527C1.0377 40.3032 1.3406 40.1075 1.67296 39.9769C2.00533 39.8463 2.36044 39.7836 2.71741 39.7924C3.07877 39.7753 3.43971 39.834 3.77711 39.9646C4.1145 40.0952 4.42091 40.2949 4.67672 40.5508C4.93253 40.8067 5.1321 41.1132 5.26264 41.4508C5.39319 41.7883 5.45183 42.1494 5.43482 42.5109V57.5402H29.6927V42.5109C29.6803 42.149 29.7439 41.7886 29.8794 41.4528C30.0149 41.117 30.2192 40.8134 30.4792 40.5615Z" fill="black"/>
<path d="M58.8728 43.2226L48.2595 68.1271H70.2683L58.8728 43.2226Z" fill="#F6AE2D"/>
<path d="M66.3402 67.1546L58.864 48.5359L51.2332 67.1546H66.3402ZM80.0377 99.6179L68.1695 71.6545H49.4039L46.4213 78.9747C46.1966 79.4746 45.8351 79.9006 45.3786 80.2036C44.9437 80.4921 44.4334 80.6459 43.9116 80.6456C43.5539 80.6534 43.1987 80.585 42.8696 80.4447C42.5405 80.3045 42.245 80.0957 42.0028 79.8323C41.5098 79.3198 41.2384 78.6338 41.2472 77.9227C41.2594 77.5092 41.3478 77.1016 41.5079 76.7203L56.1996 41.6268C56.721 40.4068 57.5738 39.7968 58.758 39.7968C59.3287 39.7683 59.8924 39.9336 60.3576 40.2658C60.8227 40.5979 61.1621 41.0775 61.3207 41.6268L85.0042 97.4696L84.0586 102.54L80.0377 99.6179Z" fill="black"/>
<path d="M111.847 40.5615C112.1 40.8189 112.298 41.1254 112.429 41.4621C112.56 41.7989 112.62 42.1588 112.607 42.5197V77.9271C112.615 78.2842 112.553 78.6394 112.422 78.9718C112.292 79.3043 112.096 79.6073 111.847 79.8632C111.593 80.1236 111.288 80.3281 110.951 80.4636C110.614 80.599 110.252 80.6626 109.889 80.65C109.531 80.6548 109.175 80.5876 108.842 80.4525C108.51 80.3173 108.208 80.1169 107.954 79.8631C107.701 79.6093 107.5 79.3072 107.365 78.9747C107.23 78.6422 107.163 78.286 107.168 77.9271V63.0746C105.851 64.457 104.233 65.516 102.44 66.1688C100.359 66.9445 98.1516 67.3253 95.9312 67.2916C90.9441 67.2916 87.1147 65.7489 84.443 62.6635C81.7712 59.578 80.4383 55.3168 80.4442 49.8797V42.5197C80.4317 42.1565 80.4951 41.7947 80.6306 41.4575C80.766 41.1203 80.9704 40.8151 81.2307 40.5615C81.6103 40.1696 82.0994 39.9015 82.6339 39.7923C83.1683 39.6831 83.7233 39.7379 84.2261 39.9495C84.729 40.1612 85.1562 40.5197 85.4519 40.9784C85.7476 41.437 85.898 41.9742 85.8834 42.5197V49.8974C85.8834 54.0791 86.6758 57.2426 88.2606 59.388C89.8454 61.5333 92.5039 62.606 96.2361 62.606C98.1548 62.6341 100.067 62.3688 101.905 61.8192C103.351 61.4174 104.679 60.6729 105.776 59.6488C106.213 59.2354 106.561 58.7372 106.799 58.1847C107.036 57.6321 107.159 57.0368 107.159 56.4351V42.5197C107.145 42.1564 107.208 41.7943 107.344 41.4569C107.479 41.1195 107.684 40.8144 107.945 40.5615C108.476 40.0725 109.17 39.8011 109.892 39.8011C110.613 39.8011 111.308 40.0725 111.838 40.5615H111.847Z" fill="black"/>
<path d="M153.854 77.989C153.859 78.3401 153.792 78.6885 153.657 79.0125C153.522 79.3365 153.321 79.6291 153.068 79.872C152.816 80.1269 152.515 80.3281 152.183 80.4633C151.851 80.5986 151.495 80.6651 151.137 80.6589C150.607 80.6577 150.088 80.5042 149.643 80.2168C149.181 79.9279 148.824 79.4967 148.627 78.988L145.697 71.6678H126.932L123.971 78.9747C123.747 79.4746 123.385 79.9006 122.929 80.2036C122.494 80.4921 121.983 80.6459 121.462 80.6456C121.104 80.6534 120.749 80.5849 120.42 80.4447C120.091 80.3045 119.795 80.0957 119.553 79.8323C119.06 79.3198 118.788 78.6338 118.797 77.9227C118.809 77.5092 118.898 77.1016 119.058 76.7203L133.75 41.6268C134.271 40.4068 135.124 39.7968 136.308 39.7968C136.879 39.7683 137.442 39.9336 137.908 40.2658C138.373 40.5979 138.712 41.0775 138.871 41.6268L153.576 76.8308C153.737 77.1971 153.831 77.5894 153.854 77.989ZM143.855 67.1546L136.379 48.5359L128.748 67.1546H143.855Z" fill="black"/>
<path d="M190.692 78.0332C190.7 78.376 190.639 78.717 190.513 79.0359C190.387 79.3549 190.198 79.6452 189.958 79.8897C189.715 80.1408 189.422 80.3382 189.097 80.4691C188.773 80.6001 188.425 80.6617 188.076 80.65C187.547 80.6482 187.031 80.4948 186.587 80.208C186.124 79.9178 185.766 79.4872 185.566 78.9791L173.353 48.8144L160.804 78.9924C160.576 79.4841 160.215 79.9022 159.762 80.1992C159.327 80.4877 158.817 80.6415 158.295 80.6412C157.938 80.6495 157.583 80.5813 157.254 80.441C156.926 80.3007 156.631 80.0916 156.39 79.8278C155.894 79.3172 155.621 78.6304 155.63 77.9182C155.645 77.5051 155.733 77.0978 155.891 76.7159L170.583 41.6224C171.104 40.4024 171.958 39.7923 173.145 39.7923C173.716 39.7641 174.279 39.9296 174.743 40.2618C175.208 40.594 175.546 41.0735 175.704 41.6224L190.449 76.822C190.602 77.2077 190.684 77.6181 190.692 78.0332Z" fill="black"/>
<path d="M225.554 41.9451C228.661 43.6763 231.216 46.2506 232.924 49.3714C234.724 52.6916 235.637 56.4203 235.575 60.1969C235.635 63.9817 234.722 67.7184 232.924 71.049C231.233 74.1744 228.693 76.7579 225.598 78.5018C222.274 80.2554 218.573 81.172 214.815 81.172C211.057 81.172 207.355 80.2554 204.031 78.5018C200.922 76.7708 198.373 74.1844 196.688 71.049C194.907 67.7132 194.007 63.978 194.072 60.1969C194.006 56.4242 194.906 52.6974 196.688 49.3714C198.381 46.2483 200.928 43.6723 204.031 41.9451C207.352 40.1945 211.048 39.2796 214.801 39.2796C218.555 39.2796 222.251 40.1945 225.572 41.9451H225.554ZM206.784 46.2859C204.454 47.6598 202.547 49.6477 201.27 52.0325C199.963 54.5531 199.281 57.3509 199.281 60.1903C199.281 63.0297 199.963 65.8275 201.27 68.3481C202.553 70.745 204.47 72.7435 206.81 74.1256C209.247 75.5163 212.005 76.2477 214.81 76.2477C217.616 76.2477 220.373 75.5163 222.81 74.1256C225.151 72.7435 227.067 70.745 228.351 68.3481C229.655 65.8266 230.335 63.0291 230.335 60.1903C230.335 57.3514 229.655 54.554 228.351 52.0325C227.074 49.6477 225.166 47.6598 222.837 46.2859C220.383 44.9151 217.62 44.1954 214.81 44.1954C212 44.1954 209.237 44.9151 206.784 46.2859Z" fill="black"/>
</svg>
