<?xml version="1.0" encoding="UTF-8"?>
<!DOCTYPE svg PUBLIC "-//W3C//DTD SVG 1.1//EN" "http://www.w3.org/Graphics/SVG/1.1/DTD/svg11.dtd">
<!-- Creator: CorelDRAW X8 -->
<svg xmlns="http://www.w3.org/2000/svg" xml:space="preserve" width="354px" height="354px" version="1.1" style="shape-rendering:geometricPrecision; text-rendering:geometricPrecision; image-rendering:optimizeQuality; fill-rule:evenodd; clip-rule:evenodd"
viewBox="0 0 354 354"
 xmlns:xlink="http://www.w3.org/1999/xlink">
 <defs>
 </defs>
 <g id="Слой_x0020_1">
  <metadata id="CorelCorpID_0Corel-Layer"/>
  <g id="_1785756182256">
   <path fill="#ffffff" d="M335 99l-86 -90c-2,-1 -3,-2 -5,-2l-129 0c-14,0 -26,12 -26,27l0 91 -52 0c-11,0 -20,9 -20,20l0 97c0,11 9,20 20,20l52 0 0 59c0,14 12,26 26,26l196 0c14,0 26,-12 26,-26l0 -217c0,-2 -1,-3 -2,-5zm-89 -74l71 74 -71 0 0 -74zm-209 224c-4,0 -7,-3 -7,-7l0 -97c0,-4 3,-7 7,-7l176 0c4,0 6,3 6,7l0 97c0,4 -2,7 -6,7l-176 0zm287 72c0,7 -6,13 -13,13l-196 0c-7,0 -13,-6 -13,-13l0 -59 111 0c11,0 20,-9 20,-20l0 -97c0,-11 -9,-20 -20,-20l-111 0 0 -91c0,-8 6,-14 13,-14l118 0 0 85c0,4 2,7 6,7l85 0 0 209z"/>
   <g>
    <path fill="#ffffff" d="M148 181c-1,-4 -3,-7 -5,-10 -3,-2 -6,-4 -9,-5 -2,-1 -6,-1 -11,-1l-21 0 0 58 22 0c4,0 7,-1 10,-2 3,-1 6,-2 8,-4 3,-3 5,-6 6,-10 2,-4 2,-8 2,-13 0,-5 0,-10 -2,-13zm-11 23c-1,3 -2,5 -3,6 -1,1 -3,2 -5,2 -1,1 -4,1 -7,1l-9 0 0 -38 6 0c4,0 8,0 9,0 2,1 4,1 6,3 1,1 2,3 3,5 1,3 1,6 1,11 0,4 0,8 -1,10z"/>
    <polygon fill="#ffffff" points="204,175 204,165 165,165 165,223 176,223 176,198 201,198 201,188 176,188 176,175 "/>
    <path fill="#ffffff" d="M86 171c-2,-3 -5,-5 -9,-5 -2,-1 -6,-1 -13,-1l-19 0 0 58 11 0 0 -22 8 0c5,0 9,0 12,-1 2,0 4,-1 6,-3 2,-1 4,-3 5,-5 2,-3 2,-6 2,-9 0,-5 -1,-9 -3,-12zm-10 16c-1,1 -2,2 -4,3 -1,1 -5,1 -9,1l-7 0 0 -16 6 0c4,0 7,0 9,0 1,0 3,1 4,2 1,2 2,4 2,6 0,1 0,3 -1,4z"/>
   </g>
  </g>
 </g>
</svg>
