<svg width="82" height="77" viewBox="0 0 82 77" fill="none" xmlns="http://www.w3.org/2000/svg">
<path d="M75.1679 8.07578C70.9008 3.5428 65.0057 0.893669 58.7829 0.712788C52.5602 0.531907 46.5211 2.83414 41.998 7.1116L40.9716 8.08118C32.0823 -1.34692 17.2332 -1.78374 7.80507 7.10552C-1.62303 15.9948 -2.05985 30.8439 6.82941 40.272L9.14044 42.721C8.16463 44.9803 8.47647 47.5895 9.95725 49.5552C11.438 51.5209 13.8599 52.5406 16.3007 52.2261C15.8875 54.377 16.5333 56.5955 18.0366 58.1885C19.5398 59.7814 21.7171 60.5547 23.8883 60.2667C23.4751 62.4173 24.1208 64.6354 25.6237 66.2281C27.1267 67.8209 29.3037 68.594 31.4746 68.306C30.9367 71.2268 32.3367 74.1624 34.9448 75.5829C37.5529 77.0034 40.7786 76.587 42.9405 74.5508C50.6579 67.2648 50.4159 67.6285 51.1447 66.4007C53.402 67.5113 56.0871 67.2911 58.1331 65.8274C60.1791 64.3636 61.2547 61.8936 60.9325 59.3986C63.083 59.8016 65.2965 59.1507 66.8864 57.6477C68.4764 56.1447 69.2506 53.9713 68.969 51.8015C71.907 52.3412 74.8569 50.9201 76.266 48.2863C77.675 45.6524 77.2202 42.4098 75.1408 40.2653C83.7035 31.2479 83.7153 17.1075 75.1679 8.07578ZM12.4211 48.3045C10.8411 46.6259 10.9173 43.9853 12.5914 42.4005L19.6233 35.7609C21.3047 34.2077 23.9232 34.2978 25.494 35.9627C27.0648 37.6277 27.0024 40.2469 25.3542 41.8353L18.3224 48.4749C16.6449 50.0553 14.0046 49.9791 12.4211 48.3045ZM20.0087 56.3451C18.4272 54.667 18.5035 52.0252 20.179 50.4411L27.2109 43.8015C28.8879 42.2193 31.53 42.2962 33.1122 43.9732C34.6944 45.6502 34.6175 48.2923 32.9404 49.8745L25.9086 56.5155C24.2292 58.0925 21.5905 58.0132 20.0087 56.3384V56.3451ZM27.5949 64.3844C26.0155 62.7058 26.0923 60.0657 27.7666 58.4817L34.7985 51.8421C36.4862 50.3604 39.0437 50.4795 40.5864 52.1117C42.129 53.7439 42.1039 56.3041 40.5294 57.9057L33.4976 64.5453C31.8212 66.1288 29.1787 66.0538 27.5949 64.3777V64.3844ZM41.0838 72.5954C39.999 73.6191 38.4504 73.9864 37.0214 73.5587C35.5924 73.1311 34.5001 71.9736 34.1559 70.5222C33.8118 69.0708 34.268 67.5461 35.3529 66.5224L42.3847 59.8813C44.0662 58.3282 46.6846 58.4183 48.2554 60.0832C49.8262 61.7482 49.7639 64.3674 48.1156 65.9557L41.0838 72.5954ZM73.0691 48.0963C72.2654 48.8586 71.191 49.2691 70.0837 49.2372C68.9765 49.2052 67.9276 48.7333 67.1692 47.9259L49.1488 28.8318C48.6361 28.2885 47.78 28.2637 47.2367 28.7764C46.6933 29.2891 46.6685 30.1452 47.1812 30.6885L65.2057 49.7812C66.2296 50.8658 66.5972 52.4143 66.1699 53.8434C65.7426 55.2725 64.5853 56.3651 63.134 56.7096C61.6828 57.054 60.1579 56.5981 59.134 55.5135L41.1109 36.4181C40.7792 36.0666 40.2852 35.9188 39.815 36.0303C39.3448 36.1417 38.9698 36.4956 38.8312 36.9586C38.6927 37.4216 38.8117 37.9233 39.1433 38.2747L57.161 57.3648C58.5837 58.8711 58.6848 61.1935 57.3983 62.8178C56.1118 64.442 53.828 64.8754 52.0359 63.8354C52.3165 61.9036 51.7566 59.9442 50.4978 58.4522C49.239 56.9603 47.4017 56.0786 45.4503 56.0301C43.9628 55.9909 44.5037 56.5534 44.5416 55.0659C44.5954 53.2417 43.922 51.471 42.6695 50.1437C41.417 48.8164 39.6883 48.0414 37.8641 47.9895C36.3766 47.9421 36.9107 48.5304 36.9553 47.0253C37.0085 45.2011 36.3346 43.4306 35.0819 42.1034C33.8293 40.7762 32.1007 40.0012 30.2765 39.9488C28.7795 39.9069 29.3231 40.5019 29.3677 38.9847C29.4407 36.2067 27.8371 33.6571 25.3015 32.5198C22.766 31.3826 19.7954 31.8805 17.7693 33.7825C8.10054 42.909 11.4366 39.7636 10.7158 40.4438L8.79832 38.4154C0.93484 30.0743 1.32201 16.9379 9.66309 9.07443C18.0042 1.21095 31.1406 1.59813 39.004 9.93921L27.9289 20.3977C26.8787 21.4047 26.2606 22.7802 26.2048 24.2341C26.0695 29.7879 34.3306 33.2848 39.3786 28.5073L49.472 18.9819C49.7327 18.7354 50.0806 18.6026 50.4392 18.6127C50.7979 18.6229 51.1377 18.7751 51.3841 19.0359C54.0372 21.8473 70.6945 39.4999 73.2395 42.195C73.9999 42.9999 74.4091 44.0741 74.3771 45.1809C74.3452 46.2878 73.8746 47.3365 73.0691 48.0963ZM73.3004 38.3194L53.3503 17.1793C52.6117 16.3969 51.5925 15.9399 50.517 15.909C49.4414 15.878 48.3977 16.2756 47.6153 17.0143L37.5206 26.5424C36.4485 27.5544 35.0175 28.0977 33.544 28.0523C32.0704 28.0069 30.6757 27.3764 29.6679 26.3004C29.1606 25.7625 28.8882 25.0448 28.9107 24.3058C28.9333 23.5668 29.2491 22.8671 29.7883 22.3612L43.8519 9.07781C51.9968 1.36727 64.7932 1.51995 72.7518 9.42261C80.7104 17.3253 80.9533 30.1203 73.3004 38.3194Z" fill="white"/>
</svg>
