<svg width="46" height="46" viewBox="0 0 46 46" fill="none" xmlns="http://www.w3.org/2000/svg">
<g clip-path="url(#clip0)">
<path d="M44.9055 26.1868C44.4182 26.0962 43.9486 26.4179 43.858 26.9058C41.994 36.9289 33.2294 44.2031 23.0169 44.2031H23.0149C11.3234 44.202 1.81065 34.6894 1.80957 22.9978C1.80903 17.3343 4.01407 12.01 8.0184 8.00562C12.0225 4.00164 17.3454 1.79688 23.0087 1.79688H23.0107C25.3025 1.79705 27.5407 2.15697 29.6841 2.86826C28.5711 3.9498 27.8838 5.50679 27.8838 7.26405C27.8838 13.3204 36.1953 17.3453 36.5491 17.5137C36.6698 17.5711 36.8017 17.6008 36.9352 17.6008C36.9441 17.6008 36.9532 17.6007 36.9623 17.6005L36.9986 17.5994C37.1235 17.5956 37.2462 17.5658 37.3589 17.512C37.5486 17.4213 40.0375 16.2117 42.2933 14.1684C43.0123 15.7345 43.536 17.3814 43.8536 19.0781C43.9343 19.5099 44.3117 19.8114 44.7356 19.8114C44.7904 19.8114 44.8461 19.8063 44.902 19.7958C45.3897 19.7045 45.7111 19.2351 45.6197 18.7474C45.2332 16.6826 44.5657 14.686 43.6334 12.8045C44.9692 11.2597 45.986 9.38661 45.986 7.26405C45.986 3.92222 43.5005 1.30435 40.3275 1.30435C39.0514 1.30435 37.8936 1.71907 36.9347 2.51203C36.1577 1.87064 35.046 1.30435 33.5424 1.30435C32.8536 1.30435 32.1973 1.42771 31.5918 1.65501C28.8641 0.557031 25.9784 0.000269531 23.0108 0H23.0086C16.8659 0 11.0911 2.39191 6.74783 6.73505C2.40407 11.0789 0.0121563 16.8545 0.0126954 22.998C0.0132345 29.1414 2.40622 34.9175 6.75071 39.262C11.0952 43.6065 16.8712 45.9995 23.0148 46H23.0169C34.0938 46 43.6025 38.1076 45.6245 27.2343C45.7152 26.7465 45.3933 26.2775 44.9055 26.1868ZM36.2589 4.3541C36.4311 4.55086 36.6836 4.66082 36.9448 4.65741C37.2028 4.65552 37.4502 4.53936 37.6192 4.34457C37.6269 4.33667 37.6344 4.32858 37.6417 4.32032C38.3635 3.51145 39.267 3.10132 40.3274 3.10132C42.4928 3.10132 44.189 4.92982 44.189 7.26414C44.189 11.5543 38.4708 14.891 36.9508 15.7019C35.4211 14.8914 29.6806 11.5624 29.6806 7.26414C29.6806 4.92982 31.3769 3.10132 33.5424 3.10132C34.6175 3.10132 35.5314 3.52277 36.2589 4.3541Z" fill="white"/>
<path d="M45.7608 22.7673C45.6136 22.4142 45.2492 22.1874 44.8669 22.215C44.4937 22.242 44.1718 22.5061 44.0682 22.8648C43.9645 23.2241 44.1035 23.6248 44.4085 23.8415C44.7113 24.0567 45.1205 24.0628 45.4302 23.8581C45.7845 23.6239 45.9208 23.1579 45.7608 22.7673Z" fill="white"/>
<path d="M28.622 20.2556L30.1808 18.6968L31.7395 20.2556C32.0903 20.6066 32.659 20.6066 33.0101 20.2556C33.361 19.9048 33.361 19.3359 33.0101 18.9851L30.8161 16.791C30.6477 16.6224 30.4191 16.5278 30.1809 16.5278C29.9426 16.5278 29.7141 16.6225 29.5456 16.791L27.3515 18.9851C27.0007 19.3359 27.0007 19.9048 27.3515 20.2557C27.527 20.4312 27.7569 20.5189 27.9868 20.5189C28.2166 20.5187 28.4464 20.431 28.622 20.2556Z" fill="white"/>
<path d="M14.2339 20.2557L15.7927 18.6969L17.3515 20.2557C17.5269 20.4312 17.7568 20.5188 17.9868 20.5188C18.2167 20.5188 18.4467 20.4312 18.622 20.2557C18.9729 19.9049 18.9729 19.336 18.622 18.985L16.428 16.791C16.0771 16.4401 15.5082 16.4401 15.1574 16.791L12.9633 18.985C12.6125 19.3359 12.6125 19.9048 12.9633 20.2557C13.3142 20.6065 13.8831 20.6065 14.2339 20.2557Z" fill="white"/>
<path d="M9.56006 24.294V25.3693C9.56006 26.7008 9.75457 28.0161 10.1384 29.2787C10.1406 29.2862 10.1431 29.2936 10.1455 29.301C11.1681 32.6448 13.4205 35.4217 16.4902 37.122C16.4909 37.1224 16.4917 37.1229 16.4924 37.1232C18.4678 38.2174 20.7134 38.7956 22.9862 38.7956C25.2591 38.7956 27.5046 38.2173 29.48 37.1232C29.4804 37.1231 29.4808 37.1229 29.481 37.1226C30.0253 36.8214 30.5542 36.4783 31.0535 36.1024C33.3102 34.4034 35.0045 31.9888 35.8267 29.3014C35.8292 29.2938 35.8316 29.2863 35.834 29.2786C36.2178 28.0161 36.4124 26.7008 36.4124 25.3692V24.2938C36.4124 23.7976 36.0101 23.3954 35.5139 23.3954H10.4585C9.96229 23.3956 9.56006 23.7978 9.56006 24.294ZM22.9862 36.9989C21.3631 36.9989 19.7568 36.6588 18.2849 36.009C19.4605 34.6582 21.1566 33.8756 22.9862 33.8756C24.6532 33.8756 26.2212 34.525 27.4012 35.7042C27.5 35.8029 27.5951 35.9047 27.6868 36.0094C26.2151 36.6589 24.6089 36.9989 22.9862 36.9989ZM29.9728 34.667C29.7541 34.8317 29.5287 34.9891 29.2984 35.1382C29.104 34.8921 28.8947 34.6565 28.6715 34.4334C27.152 32.915 25.1329 32.0787 22.9861 32.0787C20.4924 32.0787 18.1914 33.2076 16.674 35.1376C14.7316 33.8758 13.1881 32.0378 12.281 29.9164H33.6915C32.8945 31.7821 31.603 33.4397 29.9728 34.667ZM11.3569 25.1924H34.6155V25.3693C34.6155 26.3011 34.5057 27.2233 34.2887 28.119H11.6838C11.4667 27.2232 11.3569 26.301 11.3569 25.3693V25.1924Z" fill="white"/>
</g>
<defs>
<clipPath id="clip0">
<rect width="46" height="46" fill="white"/>
</clipPath>
</defs>
</svg>
