<svg width="80" height="80" viewBox="0 0 80 80" fill="none" xmlns="http://www.w3.org/2000/svg">
<g clip-path="url(#clip0)">
<path d="M74.7417 30.6206C74.3782 28.4583 72.8119 26.7213 70.7523 26.0862C72.5057 24.6774 73.5484 22.5599 73.5484 20.3081C73.5484 16.3974 70.4996 13.1937 66.6557 12.9291C66.943 12.1327 67.0968 11.2903 67.0968 10.4139V10.058C67.0968 5.93561 63.7418 2.58065 59.6195 2.58065C57.4351 2.58065 55.3654 3.53138 53.9422 5.1909C50.2476 9.50353 45.4297 12.6865 40.0145 14.3977L31.107 17.2102C29.8438 15.0466 28.8621 12.7319 28.222 10.3005L27.4798 7.47984C26.3199 3.07586 22.3305 0 17.7753 0C12.2423 0 7.74194 4.50038 7.74194 10.0334V12.369L2.86605 17.2455L10.3226 20.2281V24.7058C10.3226 29.552 11.2424 34.254 13.0557 38.7097H0V73.5484C0 77.1056 2.89441 80 6.45161 80H36.129C38.9756 80 41.2903 77.6852 41.2903 74.8387V61.3962C43.3587 61.7496 45.4568 61.9355 47.5536 61.9355H49.0323C66.107 61.9355 80 48.0425 80 30.9677V29.3189L74.7417 30.6206ZM40.7894 16.8592C46.6671 15.0025 51.8914 11.5486 55.901 6.87122C56.8334 5.7844 58.1886 5.16129 59.6195 5.16129C62.3198 5.16129 64.5161 7.35761 64.5161 10.058V10.4139C64.5161 11.1133 64.3782 11.7755 64.1034 12.3834C62.8106 15.2558 59.0052 21.9355 51.6129 21.9355V24.5161C58.9882 24.5161 63.2983 19.2011 65.4127 15.4839H66.1435C68.8042 15.4839 70.9677 17.6474 70.9677 20.3081C70.9677 21.8876 70.1846 23.3758 68.8722 24.2893C65.9791 26.3004 59.8891 29.6774 51.6129 29.6774V32.2581C58.183 32.2581 63.4772 30.2967 67.081 28.3871H69.0694C70.8285 28.3871 72.2581 29.8179 72.2581 31.577C72.2581 33.0091 71.3288 34.2414 69.9483 34.6428C66.3779 35.6786 59.2477 37.4194 51.6129 37.4194C44.6629 37.4194 36.262 35.0567 30.436 33.0746C27.6657 32.1327 25.8064 29.5319 25.8064 26.6028C25.8064 23.6051 27.7262 20.9848 30.5847 20.0825L40.7894 16.8592ZM6.45161 77.4193C4.31767 77.4193 2.58065 75.6823 2.58065 73.5484V41.2903H30.9677V74.8387C30.9677 75.7781 31.2191 76.6595 31.6608 77.4193H6.45161ZM38.7097 74.8387C38.7097 76.262 37.5523 77.4193 36.129 77.4193C34.7058 77.4193 33.5484 76.262 33.5484 74.8387V49.0323H38.7097V74.8387ZM49.0323 59.3548H47.5536C45.4555 59.3548 43.355 59.1507 41.2903 58.7714V46.4516H33.5484V38.7097H15.872C13.9094 34.2761 12.9032 29.5716 12.9032 24.7058V18.4816L7.45653 16.3029L10.3226 13.4375V10.0334C10.3226 5.92364 13.6656 2.58065 17.7753 2.58065C21.1586 2.58065 24.1224 4.8658 24.983 8.13697L25.7252 10.9589C26.3848 13.4608 27.374 15.8493 28.6385 18.0954C25.361 19.6321 23.2258 22.9007 23.2258 26.6028C23.2258 30.6376 25.7882 34.2206 29.6037 35.5185C35.6143 37.5624 44.3107 40 51.6129 40C59.5678 40 66.9651 38.1962 70.6697 37.1213C72.5422 36.577 73.9781 35.1184 74.5558 33.3254L77.3715 32.6285C76.5096 47.5107 64.128 59.3548 49.0323 59.3548Z" fill="white"/>
<path d="M71.0049 39.5691C67.9032 48.3159 59.5924 54.1936 50.3226 54.1936H47.5535C47.2039 54.1936 46.8517 54.1873 46.502 54.174L46.4037 56.7522C46.7855 56.7679 47.1705 56.7742 47.5535 56.7742H50.3226C60.6811 56.7742 69.9716 50.2067 73.4375 40.431L71.0049 39.5691Z" fill="white"/>
<path d="M16.7742 5.16129C14.6402 5.16129 12.9032 6.89831 12.9032 9.03225C12.9032 11.1662 14.6402 12.9032 16.7742 12.9032C18.9081 12.9032 20.6452 11.1662 20.6452 9.03225C20.6452 6.89831 18.9081 5.16129 16.7742 5.16129ZM16.7742 10.3226C16.0623 10.3226 15.4839 9.74294 15.4839 9.03225C15.4839 8.32157 16.0623 7.74193 16.7742 7.74193C17.4861 7.74193 18.0645 8.32157 18.0645 9.03225C18.0645 9.74294 17.4861 10.3226 16.7742 10.3226Z" fill="white"/>
<path d="M18.0645 43.871H5.16129V56.7742H18.0645V43.871ZM15.4839 54.1936H7.74193V46.4516H15.4839V54.1936Z" fill="white"/>
<path d="M20.6452 43.871H28.3871V46.4516H20.6452V43.871Z" fill="white"/>
<path d="M20.6452 49.0323H28.3871V51.6129H20.6452V49.0323Z" fill="white"/>
<path d="M20.6452 54.1936H28.3871V56.7742H20.6452V54.1936Z" fill="white"/>
<path d="M5.16129 61.9355H28.3871V64.5161H5.16129V61.9355Z" fill="white"/>
<path d="M5.16129 67.0968H28.3871V69.6774H5.16129V67.0968Z" fill="white"/>
<path d="M5.16129 72.2581H28.3871V74.8387H5.16129V72.2581Z" fill="white"/>
</g>
<defs>
<clipPath id="clip0">
<rect width="80" height="80" fill="white"/>
</clipPath>
</defs>
</svg>
