<svg width="104" height="82" viewBox="0 0 104 82" fill="none" xmlns="http://www.w3.org/2000/svg">
<path d="M102.477 78.5552H100.743V54.795C100.743 51.7313 99.0413 48.9769 96.3009 47.6068L87.335 43.1237C87.3092 43.0629 87.2871 43.0006 87.2597 42.9406C86.5733 41.4481 85.4319 40.5088 84.4616 39.9868V37.2081C87.4555 34.5412 89.3457 30.6607 89.3457 26.3453V25.9901C91.2364 25.3525 92.6022 23.5635 92.6022 21.4604V14.9474C92.6022 7.82257 86.8057 2.026 79.6809 2.026H66.6547C61.3255 2.026 56.9898 6.3615 56.9898 11.6909C56.9898 13.794 58.3556 15.5828 60.2463 16.2206V26.3455C60.2463 32.3154 63.8615 37.4544 69.0166 39.6949C67.9603 40.1105 66.4324 41.107 65.5889 42.9406C65.2955 43.5785 65.1028 44.2673 65.0087 45.0044L59.8041 47.6068C57.0637 48.9769 55.3615 51.7313 55.3615 54.795V57.0367C54.3621 57.941 53.7333 59.2475 53.7333 60.6984V76.6633C53.7333 77.3334 53.8679 77.9722 54.1107 78.5554H49.8895C50.1323 77.9722 50.2669 77.3334 50.2669 76.6633V60.6984C50.2669 57.9751 48.0513 55.7595 45.328 55.7595H40.4972V55.6547C40.4972 50.8436 36.9637 46.8437 32.3556 46.111V44.261C36.5213 42.1864 39.5594 38.1751 40.2787 33.4117C42.485 31.079 43.6991 28.0063 43.6991 24.7175C43.6991 19.4499 41.9914 14.5958 38.8907 11.0496C35.6391 7.33101 31.0231 5.2829 25.893 5.2829C25.2084 5.2829 24.532 5.31886 23.8656 5.38832C21.7774 2.29107 18.2603 0.397949 14.4952 0.397949C8.2682 0.397949 3.20206 5.46409 3.20206 11.6911C3.20206 14.9525 4.57966 17.9967 7.00395 20.1423C6.64848 21.6101 6.45856 23.1419 6.45856 24.7173C6.45856 28.9195 8.43395 32.7103 11.882 35.1425C12.6494 37.8871 14.2017 40.3057 16.2827 42.1409V46.07C8.97366 46.8341 3.2567 53.0313 3.2567 60.5396V78.5556H1.52344C0.682094 78.5556 0 79.2377 0 80.079C0 80.9204 0.682094 81.6024 1.52344 81.6024H102.477C103.318 81.6024 104 80.9204 104 80.079C104 79.2377 103.318 78.5552 102.477 78.5552ZM6.24894 11.6911C6.24894 7.14414 9.94805 3.44482 14.4952 3.44482C16.7901 3.44482 18.9568 4.41109 20.4984 6.04523C14.9435 7.65256 10.4057 11.6773 8.10205 16.9004C6.91011 15.4438 6.24894 13.6198 6.24894 11.6911ZM11.3618 30.4483C10.1528 28.8237 9.50544 26.8659 9.50544 24.7173C9.50544 15.6811 16.8569 8.32978 25.893 8.32978C30.1925 8.32978 33.8938 9.96372 36.597 13.0551C39.2121 16.0457 40.6522 20.1874 40.6522 24.7173C40.6522 25.4278 40.5801 26.1168 40.4426 26.781V26.6876C40.4426 24.2099 38.594 22.1656 36.1424 21.9327C32.3168 21.5691 25.1662 20.4397 20.2611 16.9616C19.6316 16.5153 18.7685 16.61 18.2508 17.1816L15.6524 20.0507C13.049 22.9251 11.5418 26.5907 11.3618 30.4483ZM14.3902 31.2274C14.3902 27.8456 15.6404 24.6025 17.9108 22.0958L19.6324 20.1949C25.0055 23.4973 32.003 24.5997 35.8542 24.9657C36.7331 25.0492 37.3957 25.7894 37.3957 26.6874V31.2303C37.3957 37.5729 32.2355 42.7331 25.893 42.7331C19.5504 42.7331 14.3902 37.5731 14.3902 31.2274ZM32.3505 46.1098C32.3503 46.1098 32.3501 46.1098 32.3499 46.1098C32.3501 46.1035 32.3503 46.1051 32.3505 46.1098ZM29.3089 45.371V45.8847C29.3089 48.6361 27.0705 50.8743 24.3191 50.8743C21.5678 50.8743 19.3296 48.6359 19.3296 45.8847V44.209C21.3031 45.2112 23.5322 45.7799 25.8932 45.7799C27.0695 45.7799 28.2124 45.6359 29.3089 45.371ZM47.2201 76.6631C47.2201 77.7063 46.3712 78.5552 45.328 78.5552H16.3369C15.2937 78.5552 14.4448 77.7063 14.4448 76.6631V68.6806C14.4448 67.8393 13.7627 67.1572 12.9214 67.1572C12.08 67.1572 11.398 67.8393 11.398 68.6806V76.6631C11.398 77.3332 11.5326 77.972 11.7754 78.5552H6.30337V60.5392C6.30337 54.4871 11.0025 49.5154 16.9433 49.0722C18.1797 51.9222 21.0198 53.9212 24.3191 53.9212C27.6102 53.9212 30.4442 51.9318 31.6855 49.0931C34.9328 49.5132 37.4504 52.2944 37.4504 55.6542V55.7591H16.3369C13.6136 55.7591 11.398 57.9745 11.398 60.698V62.1674C11.398 63.0088 12.08 63.6909 12.9214 63.6909C13.7627 63.6909 14.4448 63.0088 14.4448 62.1674V60.698C14.4448 59.6548 15.2937 58.8059 16.3369 58.8059H45.328C46.3712 58.8059 47.2201 59.6546 47.2201 60.698V76.6631ZM84.5112 44.2579C85.135 45.666 84.9178 47.7066 83.8886 50.2152L78.8812 47.2107L83.2733 42.8188C83.6891 43.0855 84.1908 43.5346 84.5112 44.2579ZM76.4242 45.3587L71.6036 40.5381C72.6318 40.7692 73.6992 40.8952 74.7961 40.8952C77.179 40.8952 79.4276 40.3157 81.4145 39.296V40.3685L76.4242 45.3587ZM77.9886 55.7593H74.8597L75.4806 49.8556L76.424 49.2895L77.3675 49.8556L77.9886 55.7593ZM63.2931 26.3455V16.471H74.7957C75.637 16.471 76.3191 15.7889 76.3191 14.9476C76.3191 14.1062 75.637 13.4242 74.7957 13.4242H61.7697C60.814 13.4242 60.0366 12.6466 60.0366 11.6911C60.0366 8.04195 63.0055 5.07307 66.6547 5.07307H79.6809C85.1256 5.07307 89.5554 9.50282 89.5554 14.9476V21.4606C89.5554 22.4163 88.7778 23.1937 87.8223 23.1937C86.867 23.1937 86.0897 22.4165 86.0897 21.461V18.1582C86.1071 16.9281 85.6347 15.7601 84.7582 14.8686C83.8559 13.9507 82.5987 13.4242 81.3091 13.4242C80.4678 13.4242 79.7857 14.1062 79.7857 14.9476C79.7857 15.7889 80.4678 16.471 81.3091 16.471C81.7871 16.471 82.252 16.6654 82.5851 17.0044C82.8874 17.312 83.0501 17.7083 83.0428 18.12C83.0428 18.1287 83.0426 18.1377 83.0426 18.1464V21.4612C83.0426 23.564 84.4082 25.3527 86.2987 25.9903V26.3455C86.2987 32.6881 81.1385 37.8483 74.7959 37.8483C68.4531 37.8483 63.2931 32.6881 63.2931 26.3455ZM68.3371 44.2579C68.6583 43.5334 69.1608 43.0841 69.5746 42.818L73.9672 47.2105L68.9597 50.215C67.9305 47.7066 67.7131 45.666 68.3371 44.2579ZM58.4082 54.795C58.4082 52.8928 59.465 51.1829 61.1664 50.3322L65.1879 48.3214C65.4883 49.7782 66.063 51.3651 66.9201 53.0792C67.1099 53.4589 67.4493 53.742 67.8568 53.8606C67.9965 53.9013 68.1399 53.9214 68.2825 53.9214C68.5561 53.9214 68.8273 53.8477 69.0664 53.7042L72.2103 51.8178L71.7957 55.7595H58.6718C58.5833 55.7595 58.4953 55.7621 58.408 55.7666V54.795H58.4082ZM89.5552 76.6631C89.5552 77.7063 88.7063 78.5552 87.6631 78.5552H58.672C57.6288 78.5552 56.7799 77.7063 56.7799 76.6631V60.6982C56.7799 59.655 57.6288 58.8061 58.672 58.8061H87.6631C88.7063 58.8061 89.5552 59.6548 89.5552 60.6982V76.6631ZM97.6966 78.5552H92.2246C92.4674 77.972 92.602 77.3332 92.602 76.6631V60.6982C92.602 57.9749 90.3864 55.7593 87.6631 55.7593H81.0524L80.6378 51.8178L83.7817 53.7042C84.0208 53.8477 84.2922 53.9214 84.5656 53.9214C84.7084 53.9214 84.8518 53.9013 84.9916 53.8606C85.3988 53.742 85.7385 53.4589 85.9282 53.0792C87.0927 50.7502 87.7441 48.6525 87.8804 46.8031L94.9384 50.3322C96.6398 51.1829 97.6966 52.893 97.6966 54.795V78.5552Z" fill="white"/>
</svg>
