<svg width="48" height="30" viewBox="0 0 48 30" fill="none" xmlns="http://www.w3.org/2000/svg">
<path fill-rule="evenodd" clip-rule="evenodd" d="M46.8948 2.01316C47.2325 0.828947 46.8948 0 45.3192 0H40.0669C38.7164 0 38.1161 0.75 37.7785 1.57895C37.7785 1.57895 35.1149 8.44737 31.3257 12.8684C30.0877 14.1711 29.5625 14.5658 28.8872 14.5658C28.5496 14.5658 28.0619 14.1711 28.0619 12.9868V2.01316C28.0619 0.592105 27.6867 0 26.5612 0H18.3077C17.4824 0 16.9572 0.671051 16.9572 1.26316C16.9572 2.60526 18.833 2.92105 19.0581 6.63158V14.7632C19.0581 16.5395 18.7579 16.8553 18.0826 16.8553C16.3194 16.8553 11.9676 9.98684 9.41648 2.09211C8.89126 0.63158 8.40355 0 7.05298 0H1.80076C0.300127 0 0 0.75 0 1.57895C0 3.03947 1.76325 10.3026 8.29101 19.8947C12.6428 26.4474 18.7579 30 24.3103 30C27.6492 30 28.0619 29.2105 28.0619 27.8684V22.8947C28.0619 21.3158 28.362 21 29.45 21C30.2378 21 31.5508 21.3947 34.6647 24.5526C38.2287 28.3026 38.8289 30 40.8173 30H46.0695C47.5701 30 48.3204 29.2105 47.8702 27.6711C47.3825 26.1316 45.6943 23.8816 43.4434 21.1974C42.2054 19.6579 40.3671 18.0395 39.8419 17.2105C39.054 16.1447 39.2791 15.6711 39.8419 14.7632C39.8419 14.7237 46.2571 5.25 46.8948 2.01316Z" fill="white"/>
</svg>
